<?xml version="1.0" encoding="UTF-8"?>
<svg id="Layer_1" xmlns="http://www.w3.org/2000/svg" version="1.1" viewBox="0 0 32 32">
  <!-- Generator: Adobe Illustrator 30.3.0, SVG Export Plug-In . SVG Version: 2.1.3 Build 182)  -->
  <defs>
    <style>
      .st0 {
        fill: #e5023d;
      }
    </style>
  </defs>
  <path class="st0" d="M15.9,12.4c-1.6-2.2-3.9-3.3-6.2-3.3-3.7,0-6.4,2.8-6.4,6.6,0,6.5,5,14,12.5,14s12.5-7.5,12.5-14.1-3.7-7.5-6.4-7.3c-3.9.4-4.5,1.7-6.1,3.9h.1Z"/>
  <path class="st0" d="M15.7,5.2c.8-1.7,2-3,3.7-3.6.6,2.4-.3,4.9-2,6.6-.6.8-1.2,1.1-1.7,1.3h0c-.5-1.4-.6-2.9,0-4.3h-.1Z"/>
</svg>