<?xml version="1.0" encoding="UTF-8"?>
<svg xmlns="http://www.w3.org/2000/svg" version="1.1" viewBox="0 0 140 32">
  <!-- Generator: Adobe Illustrator 30.3.0, SVG Export Plug-In . SVG Version: 2.1.3 Build 182)  -->
  <defs>
    <style>
      .st0 {
        font-family: Helvetica-Bold, Helvetica;
        font-size: 22px;
        font-weight: 700;
      }

      .st0, .st1 {
        isolation: isolate;
      }

      .st0, .st2 {
        fill: #f5f5f5;
      }

      .st3 {
        fill: #583a68;
      }

      .st1, .st4 {
        display: none;
      }
    </style>
  </defs>
  <g id="Layer_3" class="st4">
    <rect class="st3" x="0" y="-.3" width="139.8" height="32.3"/>
  </g>
  <g id="Layer_1">
    <g id="Layer_11" data-name="Layer_1" class="st4">
      <g class="st1">
        <text class="st0" transform="translate(0 24)"><tspan x="0" y="0">ForMa</tspan></text>
      </g>
    </g>
    <path class="st2" d="M31.1,11.3H5v2.7h6.1v3h-6.1v6.9H1.7v-15.8h29.4v3.1h0Z"/>
    <path class="st2" d="M31.1,17h-3.3v6.9h-3.3v-9.9h6.6v3Z"/>
    <path class="st2" d="M35.7,24h-3.1v-15.8h4.8l2.9,12.5,2.9-12.5h4.8v15.8h-3.1v-13.3l-3,13.3h-3.2l-3-13.3v2.6s0,10.7,0,10.7Z"/>
    <path class="st2" d="M50.8,13.6c.8-1,2.2-1.5,4.2-1.5s2.4.3,3.4.8,1.5,1.5,1.5,2.9v6.8c0,.4,0,.7.2.8,0,.1.3.3.5.4v.5h-3.3c0-.2-.2-.5-.2-.7v-.7c-.4.5-.9.8-1.5,1.2-.7.4-1.4.6-2.2.6s-1.9-.3-2.6-.9c-.7-.6-1-1.5-1-2.6s.6-2.5,1.7-3.1c.6-.4,1.5-.6,2.7-.8h1c.6-.2,1-.3,1.2-.4.4-.2.7-.5.7-.9s-.2-.8-.5-1-.8-.3-1.5-.3-1.2.2-1.5.5c-.2.3-.4.6-.4,1.1h-3c0-1,.4-1.9.9-2.5l-.3-.2ZM53.1,21.8c.3.2.6.4,1.1.4s1.3-.2,1.8-.6c.6-.4.8-1.1.9-2.1v-1.1l-.6.3c-.2,0-.5.1-.8.2h-.7c-.6.2-1.1.4-1.4.5-.5.3-.7.7-.7,1.3s0,.9.4,1.1Z"/>
    <g id="Layer_31" data-name="Layer_3" class="st4">
      <path class="st2" d="M30.2,16.6c-1.2,0-2,.4-2.4,1.2-.2.4-.3,1.1-.3,2v4.2h-3v-10.1h6.7v2.8h-1Z"/>
    </g>
  </g>
  <g id="Layer_6">
    <path class="st2" d="M12.9,14v9.9h9.8v-9.9h-9.8ZM19.7,20.9h-3.8v-3.9h3.8v3.9Z"/>
  </g>
  <g id="Layer_5" class="st4">
    <path class="st2" d="M21.6,15.6c.8,1,1.3,2.2,1.3,3.6s-.4,2.6-1.3,3.7c-.8,1-2.1,1.5-3.8,1.5s-3-.5-3.8-1.5-1.3-2.2-1.3-3.7.4-2.6,1.3-3.6,2.1-1.5,3.8-1.5,3,.5,3.8,1.5ZM17.8,16.7c-.6,0-1.1.2-1.5.7-.3.4-.5,1.1-.5,1.9s.2,1.4.5,1.9c.3.5.8.7,1.5.7s1.1-.2,1.5-.7c.3-.4.5-1.1.5-1.9s-.2-1.4-.5-1.9c-.3-.4-.8-.7-1.5-.7Z"/>
  </g>
</svg>